<svg width="103" height="144" viewBox="0 0 103 144" fill="none" xmlns="http://www.w3.org/2000/svg">
<path d="M5 80.4615L19.5 74.5385L31.5 69L37.5 65.4615V71.9615L31.5 75.5L19.5 81.0385L5 86.9615V80.4615Z" fill="#68BF4B"/>
<path d="M31.5 75.5L19.5 81.0385V120.5H31.5V75.5Z" fill="#68BF4B"/>
<path d="M19.5 74.5385L31.5 69V65H19.5V74.5385Z" fill="#68BF4B"/>
<path d="M99.5703 95.6172C99.5703 99.6953 98.8672 103.375 97.4609 106.656C96.0547 109.914 94.1094 112.68 91.625 114.953C89.1406 117.227 86.1992 118.973 82.8008 120.191C79.4023 121.41 75.7227 122.02 71.7617 122.02C67.8008 122.02 64.1211 121.41 60.7227 120.191C57.3242 118.973 54.3828 117.227 51.8984 114.953C49.4141 112.68 47.4688 109.914 46.0625 106.656C44.6562 103.375 43.9531 99.6953 43.9531 95.6172C43.9531 91.4688 44.6445 87.7656 46.0273 84.5078C47.4336 81.2266 49.3672 78.4609 51.8281 76.2109C54.3125 73.9375 57.2539 72.2031 60.6523 71.0078C64.0508 69.7891 67.7539 69.1797 71.7617 69.1797C75.7695 69.1797 79.4727 69.7891 82.8711 71.0078C86.2695 72.2031 89.1992 73.9375 91.6602 76.2109C94.1445 78.4609 96.0781 81.2266 97.4609 84.5078C98.8672 87.7656 99.5703 91.4688 99.5703 95.6172ZM85.3672 95.6172C85.3672 94.0703 85.2969 92.4883 85.1562 90.8711C85.0156 89.2539 84.7578 87.6836 84.3828 86.1602C84.0078 84.6367 83.4922 83.207 82.8359 81.8711C82.2031 80.5352 81.3828 79.375 80.375 78.3906C79.3672 77.3828 78.1484 76.5977 76.7188 76.0352C75.3125 75.4492 73.6602 75.1562 71.7617 75.1562C69.8398 75.1562 68.1641 75.4492 66.7344 76.0352C65.3047 76.5977 64.0859 77.3711 63.0781 78.3555C62.0703 79.3398 61.25 80.5 60.6172 81.8359C59.9844 83.1719 59.4805 84.6016 59.1055 86.125C58.7539 87.625 58.5078 89.1953 58.3672 90.8359C58.2266 92.4531 58.1562 94.0469 58.1562 95.6172C58.1562 97.1641 58.2266 98.7461 58.3672 100.363C58.5078 101.98 58.7656 103.551 59.1406 105.074C59.5156 106.574 60.0195 107.992 60.6523 109.328C61.3086 110.664 62.1406 111.836 63.1484 112.844C64.1562 113.828 65.3633 114.613 66.7695 115.199C68.1992 115.785 69.8633 116.078 71.7617 116.078C73.6133 116.078 75.2305 115.785 76.6133 115.199C77.9961 114.59 79.1914 113.781 80.1992 112.773C81.207 111.742 82.0391 110.559 82.6953 109.223C83.375 107.863 83.9023 106.434 84.2773 104.934C84.6758 103.41 84.957 101.852 85.1211 100.258C85.2852 98.6641 85.3672 97.1172 85.3672 95.6172Z" fill="#C21E4A"/>
<path d="M64 23.4615L78.5 17.5385L90.5 12L96.5 8.46154V14.9615L90.5 18.5L78.5 24.0385L64 29.9615V23.4615Z" fill="#FF0021"/>
<path d="M90.5 18.5L78.5 24.0385V63.5H90.5V18.5Z" fill="#FF0021"/>
<path d="M78.5 17.5385L90.5 12V8H78.5V17.5385Z" fill="#FF0021"/>
<path d="M58.5703 33.6172C58.5703 37.6953 57.8672 41.375 56.4609 44.6562C55.0547 47.9141 53.1094 50.6797 50.625 52.9531C48.1406 55.2266 45.1992 56.9727 41.8008 58.1914C38.4023 59.4102 34.7227 60.0195 30.7617 60.0195C26.8008 60.0195 23.1211 59.4102 19.7227 58.1914C16.3242 56.9727 13.3828 55.2266 10.8984 52.9531C8.41406 50.6797 6.46875 47.9141 5.0625 44.6562C3.65625 41.375 2.95312 37.6953 2.95312 33.6172C2.95312 29.4688 3.64453 25.7656 5.02734 22.5078C6.43359 19.2266 8.36719 16.4609 10.8281 14.2109C13.3125 11.9375 16.2539 10.2031 19.6523 9.00781C23.0508 7.78906 26.7539 7.17969 30.7617 7.17969C34.7695 7.17969 38.4727 7.78906 41.8711 9.00781C45.2695 10.2031 48.1992 11.9375 50.6602 14.2109C53.1445 16.4609 55.0781 19.2266 56.4609 22.5078C57.8672 25.7656 58.5703 29.4688 58.5703 33.6172ZM44.3672 33.6172C44.3672 32.0703 44.2969 30.4883 44.1562 28.8711C44.0156 27.2539 43.7578 25.6836 43.3828 24.1602C43.0078 22.6367 42.4922 21.207 41.8359 19.8711C41.2031 18.5352 40.3828 17.375 39.375 16.3906C38.3672 15.3828 37.1484 14.5977 35.7188 14.0352C34.3125 13.4492 32.6602 13.1562 30.7617 13.1562C28.8398 13.1562 27.1641 13.4492 25.7344 14.0352C24.3047 14.5977 23.0859 15.3711 22.0781 16.3555C21.0703 17.3398 20.25 18.5 19.6172 19.8359C18.9844 21.1719 18.4805 22.6016 18.1055 24.125C17.7539 25.625 17.5078 27.1953 17.3672 28.8359C17.2266 30.4531 17.1562 32.0469 17.1562 33.6172C17.1562 35.1641 17.2266 36.7461 17.3672 38.3633C17.5078 39.9805 17.7656 41.5508 18.1406 43.0742C18.5156 44.5742 19.0195 45.9922 19.6523 47.3281C20.3086 48.6641 21.1406 49.8359 22.1484 50.8438C23.1562 51.8281 24.3633 52.6133 25.7695 53.1992C27.1992 53.7852 28.8633 54.0781 30.7617 54.0781C32.6133 54.0781 34.2305 53.7852 35.6133 53.1992C36.9961 52.5898 38.1914 51.7812 39.1992 50.7734C40.207 49.7422 41.0391 48.5586 41.6953 47.2227C42.375 45.8633 42.9023 44.4336 43.2773 42.9336C43.6758 41.4102 43.957 39.8516 44.1211 38.2578C44.2852 36.6641 44.3672 35.1172 44.3672 33.6172Z" fill="#5A83B5"/>
</svg>
