<svg width="161" height="58" viewBox="0 0 161 58" fill="none" xmlns="http://www.w3.org/2000/svg">
<path d="M45.8477 36.6094C45.8477 38.7188 45.5664 40.6992 45.0039 42.5508C44.4414 44.4023 43.6562 46.1133 42.6484 47.6836C41.6641 49.2539 40.4688 50.6719 39.0625 51.9375C37.6562 53.1797 36.1094 54.2344 34.4219 55.1016C32.7578 55.9688 30.9648 56.6367 29.043 57.1055C27.1445 57.5742 25.1875 57.8086 23.1719 57.8086C21.1562 57.8086 19.1992 57.5742 17.3008 57.1055C15.4023 56.6367 13.6094 55.9688 11.9219 55.1016C10.2578 54.2344 8.72266 53.1797 7.31641 51.9375C5.91016 50.6719 4.70312 49.2539 3.69531 47.6836C2.71094 46.1133 1.9375 44.4023 1.375 42.5508C0.8125 40.6758 0.53125 38.6953 0.53125 36.6094C0.53125 34.5234 0.8125 32.5547 1.375 30.7031C1.9375 28.8281 2.71094 27.1055 3.69531 25.5352C4.70312 23.9648 5.91016 22.5586 7.31641 21.3164C8.72266 20.0508 10.2578 18.9844 11.9219 18.1172C13.6094 17.25 15.4023 16.582 17.3008 16.1133C19.1992 15.6445 21.1562 15.4102 23.1719 15.4102C25.1875 15.4102 27.1445 15.6445 29.043 16.1133C30.9648 16.582 32.7578 17.25 34.4219 18.1172C36.1094 18.9844 37.6562 20.0508 39.0625 21.3164C40.4688 22.5586 41.6641 23.9648 42.6484 25.5352C43.6562 27.1055 44.4414 28.8281 45.0039 30.7031C45.5664 32.5547 45.8477 34.5234 45.8477 36.6094ZM33.7539 36.6094C33.7539 35.4844 33.6836 34.3008 33.543 33.0586C33.4258 31.793 33.2148 30.5625 32.9102 29.3672C32.6055 28.1484 32.1836 26.9883 31.6445 25.8867C31.1289 24.7617 30.4844 23.7891 29.7109 22.9688C28.9375 22.125 28.0117 21.457 26.9336 20.9648C25.8555 20.4492 24.6016 20.1914 23.1719 20.1914C21.8125 20.1914 20.6055 20.4492 19.5508 20.9648C18.4961 21.4805 17.5703 22.1719 16.7734 23.0391C16 23.8828 15.3438 24.8672 14.8047 25.9922C14.2891 27.1172 13.8672 28.2891 13.5391 29.5078C13.2109 30.7031 12.9766 31.9219 12.8359 33.1641C12.6953 34.3828 12.625 35.5312 12.625 36.6094C12.625 37.6875 12.6953 38.8477 12.8359 40.0898C12.9766 41.3086 13.2109 42.5273 13.5391 43.7461C13.8672 44.9648 14.2891 46.1367 14.8047 47.2617C15.3438 48.3633 16 49.3477 16.7734 50.2148C17.5703 51.0586 18.4961 51.7383 19.5508 52.2539C20.6055 52.7695 21.8125 53.0273 23.1719 53.0273C24.5781 53.0273 25.8203 52.7812 26.8984 52.2891C27.9766 51.7734 28.9023 51.0938 29.6758 50.25C30.4727 49.4062 31.1289 48.4336 31.6445 47.332C32.1602 46.2305 32.5703 45.0703 32.875 43.8516C33.2031 42.6328 33.4258 41.4023 33.543 40.1602C33.6836 38.918 33.7539 37.7344 33.7539 36.6094Z" fill="black"/>
<path d="M47 16.9615L61.5 11.0385L73.5 5.5L79.5 1.96154V8.46154L73.5 12L61.5 17.5385L47 23.4615V16.9615Z" fill="black"/>
<path d="M73.5 12L61.5 17.5385V57H73.5V12Z" fill="black"/>
<path d="M61.5 11.0385L73.5 5.5V1.5H61.5V11.0385Z" fill="black"/>
<path d="M73.5 12L61.5 17.5385M73.5 12V57H61.5V17.5385M73.5 12L79.5 8.46154V1.96154L73.5 5.5M73.5 12V5.5M61.5 17.5385L47 23.4615V16.9615L61.5 11.0385M61.5 17.5385V11.0385M61.5 11.0385L73.5 5.5M61.5 11.0385V1.5H73.5V5.5" stroke="black"/>
<path d="M128 16.4615L142.5 10.5385L154.5 5L160.5 1.46154V7.96154L154.5 11.5L142.5 17.0385L128 22.9615V16.4615Z" fill="black"/>
<path d="M154.5 11.5L142.5 17.0385V56.5H154.5V11.5Z" fill="black"/>
<path d="M142.5 10.5385L154.5 5V1H142.5V10.5385Z" fill="black"/>
<path d="M154.5 11.5L142.5 17.0385M154.5 11.5V56.5H142.5V17.0385M154.5 11.5L160.5 7.96154V1.46154L154.5 5M154.5 11.5V5M142.5 17.0385L128 22.9615V16.4615L142.5 10.5385M142.5 17.0385V10.5385M142.5 10.5385L154.5 5M142.5 10.5385V1H154.5V5" stroke="black"/>
<path d="M126.496 36.6094C126.496 38.7188 126.215 40.6992 125.652 42.5508C125.09 44.4023 124.305 46.1133 123.297 47.6836C122.312 49.2539 121.117 50.6719 119.711 51.9375C118.305 53.1797 116.758 54.2344 115.07 55.1016C113.406 55.9688 111.613 56.6367 109.691 57.1055C107.793 57.5742 105.836 57.8086 103.82 57.8086C101.805 57.8086 99.8477 57.5742 97.9492 57.1055C96.0508 56.6367 94.2578 55.9688 92.5703 55.1016C90.9062 54.2344 89.3711 53.1797 87.9648 51.9375C86.5586 50.6719 85.3516 49.2539 84.3438 47.6836C83.3594 46.1133 82.5859 44.4023 82.0234 42.5508C81.4609 40.6758 81.1797 38.6953 81.1797 36.6094C81.1797 34.5234 81.4609 32.5547 82.0234 30.7031C82.5859 28.8281 83.3594 27.1055 84.3438 25.5352C85.3516 23.9648 86.5586 22.5586 87.9648 21.3164C89.3711 20.0508 90.9062 18.9844 92.5703 18.1172C94.2578 17.25 96.0508 16.582 97.9492 16.1133C99.8477 15.6445 101.805 15.4102 103.82 15.4102C105.836 15.4102 107.793 15.6445 109.691 16.1133C111.613 16.582 113.406 17.25 115.07 18.1172C116.758 18.9844 118.305 20.0508 119.711 21.3164C121.117 22.5586 122.312 23.9648 123.297 25.5352C124.305 27.1055 125.09 28.8281 125.652 30.7031C126.215 32.5547 126.496 34.5234 126.496 36.6094ZM114.402 36.6094C114.402 35.4844 114.332 34.3008 114.191 33.0586C114.074 31.793 113.863 30.5625 113.559 29.3672C113.254 28.1484 112.832 26.9883 112.293 25.8867C111.777 24.7617 111.133 23.7891 110.359 22.9688C109.586 22.125 108.66 21.457 107.582 20.9648C106.504 20.4492 105.25 20.1914 103.82 20.1914C102.461 20.1914 101.254 20.4492 100.199 20.9648C99.1445 21.4805 98.2188 22.1719 97.4219 23.0391C96.6484 23.8828 95.9922 24.8672 95.4531 25.9922C94.9375 27.1172 94.5156 28.2891 94.1875 29.5078C93.8594 30.7031 93.625 31.9219 93.4844 33.1641C93.3438 34.3828 93.2734 35.5312 93.2734 36.6094C93.2734 37.6875 93.3438 38.8477 93.4844 40.0898C93.625 41.3086 93.8594 42.5273 94.1875 43.7461C94.5156 44.9648 94.9375 46.1367 95.4531 47.2617C95.9922 48.3633 96.6484 49.3477 97.4219 50.2148C98.2188 51.0586 99.1445 51.7383 100.199 52.2539C101.254 52.7695 102.461 53.0273 103.82 53.0273C105.227 53.0273 106.469 52.7812 107.547 52.2891C108.625 51.7734 109.551 51.0938 110.324 50.25C111.121 49.4062 111.777 48.4336 112.293 47.332C112.809 46.2305 113.219 45.0703 113.523 43.8516C113.852 42.6328 114.074 41.4023 114.191 40.1602C114.332 38.918 114.402 37.7344 114.402 36.6094Z" fill="black"/>
</svg>
