<svg width="160" height="57" viewBox="0 0 160 57" fill="none" xmlns="http://www.w3.org/2000/svg">
<path d="M45.3164 35.6094C45.3164 37.7188 45.0351 39.6992 44.4726 41.5508C43.9101 43.4023 43.1249 45.1133 42.1171 46.6836C41.1328 48.2539 39.9375 49.6719 38.5312 50.9375C37.125 52.1797 35.5782 53.2344 33.8907 54.1016C32.2266 54.9688 30.4335 55.6367 28.5117 56.1055C26.6132 56.5742 24.6562 56.8086 22.6406 56.8086C20.6249 56.8086 18.668 56.5742 16.7696 56.1055C14.8711 55.6367 13.0781 54.9688 11.3906 54.1016C9.72655 53.2344 8.19141 52.1797 6.78516 50.9375C5.37891 49.6719 4.17187 48.2539 3.16406 46.6836C2.17969 45.1133 1.40625 43.4023 0.84375 41.5508C0.28125 39.6758 0 37.6953 0 35.6094C0 33.5234 0.28125 31.5547 0.84375 29.7031C1.40625 27.8281 2.17969 26.1055 3.16406 24.5352C4.17187 22.9648 5.37891 21.5586 6.78516 20.3164C8.19141 19.0508 9.72655 17.9844 11.3906 17.1172C13.0781 16.25 14.8711 15.582 16.7696 15.1133C18.668 14.6445 20.6249 14.4102 22.6406 14.4102C24.6562 14.4102 26.6132 14.6445 28.5117 15.1133C30.4335 15.582 32.2266 16.25 33.8907 17.1172C35.5782 17.9844 37.125 19.0508 38.5312 20.3164C39.9375 21.5586 41.1328 22.9648 42.1171 24.5352C43.1249 26.1055 43.9101 27.8281 44.4726 29.7031C45.0351 31.5547 45.3164 33.5234 45.3164 35.6094ZM33.2226 35.6094C33.2226 34.4844 33.1523 33.3008 33.0117 32.0586C32.8945 30.793 32.6835 29.5625 32.3789 28.3672C32.0742 27.1484 31.6524 25.9883 31.1133 24.8867C30.5977 23.7617 29.9531 22.7891 29.1796 21.9688C28.4062 21.125 27.4804 20.457 26.4023 19.9648C25.3242 19.4492 24.0703 19.1914 22.6406 19.1914C21.2812 19.1914 20.0743 19.4492 19.0196 19.9648C17.9649 20.4805 17.039 21.1719 16.2421 22.0391C15.4687 22.8828 14.8125 23.8672 14.2734 24.9922C13.7578 26.1172 13.3359 27.2891 13.0078 28.5078C12.6796 29.7031 12.4454 30.9219 12.3047 32.1641C12.1641 33.3828 12.0938 34.5312 12.0938 35.6094C12.0938 36.6875 12.1641 37.8477 12.3047 39.0898C12.4454 40.3086 12.6796 41.5273 13.0078 42.7461C13.3359 43.9648 13.7578 45.1367 14.2734 46.2617C14.8125 47.3633 15.4687 48.3477 16.2421 49.2148C17.039 50.0586 17.9649 50.7383 19.0196 51.2539C20.0743 51.7695 21.2812 52.0273 22.6406 52.0273C24.0468 52.0273 25.289 51.7812 26.3671 51.2891C27.4453 50.7734 28.3711 50.0938 29.1446 49.25C29.9415 48.4062 30.5977 47.4336 31.1133 46.332C31.629 45.2305 32.0391 44.0703 32.3438 42.8516C32.6718 41.6328 32.8945 40.4023 33.0117 39.1602C33.1523 37.918 33.2226 36.7344 33.2226 35.6094Z" fill="#FF0021"/>
<path d="M46.4688 15.9615L60.9688 10.0385L72.9688 4.5L78.9688 0.961538V7.46154L72.9688 11L60.9688 16.5385L46.4688 22.4615V15.9615Z" fill="#FF0021"/>
<path d="M72.9688 11L60.9688 16.5385V56H72.9688V11Z" fill="#FF0021"/>
<path d="M60.9688 10.0385L72.9688 4.5V0.5H60.9688V10.0385Z" fill="#FF0021"/>
<path d="M127.469 15.4615L141.969 9.53846L153.969 4L159.969 0.461538V6.96154L153.969 10.5L141.969 16.0385L127.469 21.9615V15.4615Z" fill="#FF0021"/>
<path d="M153.969 10.5L141.969 16.0385V55.5H153.969V10.5Z" fill="#FF0021"/>
<path d="M141.969 9.53846L153.969 4V0H141.969V9.53846Z" fill="#FF0021"/>
<path d="M125.965 35.6094C125.965 37.7188 125.684 39.6992 125.121 41.5508C124.559 43.4023 123.774 45.1133 122.766 46.6836C121.781 48.2539 120.586 49.6719 119.18 50.9375C117.774 52.1797 116.227 53.2344 114.539 54.1016C112.875 54.9688 111.082 55.6367 109.16 56.1055C107.262 56.5742 105.305 56.8086 103.289 56.8086C101.274 56.8086 99.3164 56.5742 97.4179 56.1055C95.5195 55.6367 93.7265 54.9688 92.039 54.1016C90.3749 53.2344 88.8398 52.1797 87.4335 50.9375C86.0273 49.6719 84.8203 48.2539 83.8125 46.6836C82.8281 45.1133 82.0546 43.4023 81.4921 41.5508C80.9296 39.6758 80.6484 37.6953 80.6484 35.6094C80.6484 33.5234 80.9296 31.5547 81.4921 29.7031C82.0546 27.8281 82.8281 26.1055 83.8125 24.5352C84.8203 22.9648 86.0273 21.5586 87.4335 20.3164C88.8398 19.0508 90.3749 17.9844 92.039 17.1172C93.7265 16.25 95.5195 15.582 97.4179 15.1133C99.3164 14.6445 101.274 14.4102 103.289 14.4102C105.305 14.4102 107.262 14.6445 109.16 15.1133C111.082 15.582 112.875 16.25 114.539 17.1172C116.227 17.9844 117.774 19.0508 119.18 20.3164C120.586 21.5586 121.781 22.9648 122.766 24.5352C123.774 26.1055 124.559 27.8281 125.121 29.7031C125.684 31.5547 125.965 33.5234 125.965 35.6094ZM113.871 35.6094C113.871 34.4844 113.801 33.3008 113.66 32.0586C113.543 30.793 113.332 29.5625 113.028 28.3672C112.723 27.1484 112.301 25.9883 111.762 24.8867C111.246 23.7617 110.602 22.7891 109.828 21.9688C109.055 21.125 108.129 20.457 107.051 19.9648C105.973 19.4492 104.719 19.1914 103.289 19.1914C101.93 19.1914 100.723 19.4492 99.6677 19.9648C98.6132 20.4805 97.6875 21.1719 96.8906 22.0391C96.1171 22.8828 95.4609 23.8672 94.9218 24.9922C94.4062 26.1172 93.9843 27.2891 93.6562 28.5078C93.3281 29.7031 93.0937 30.9219 92.9531 32.1641C92.8125 33.3828 92.7421 34.5312 92.7421 35.6094C92.7421 36.6875 92.8125 37.8477 92.9531 39.0898C93.0937 40.3086 93.3281 41.5273 93.6562 42.7461C93.9843 43.9648 94.4062 45.1367 94.9218 46.2617C95.4609 47.3633 96.1171 48.3477 96.8906 49.2148C97.6875 50.0586 98.6132 50.7383 99.6677 51.2539C100.723 51.7695 101.93 52.0273 103.289 52.0273C104.696 52.0273 105.938 51.7812 107.016 51.2891C108.094 50.7734 109.02 50.0938 109.793 49.25C110.59 48.4062 111.246 47.4336 111.762 46.332C112.278 45.2305 112.688 44.0703 112.992 42.8516C113.321 41.6328 113.543 40.4023 113.66 39.1602C113.801 37.918 113.871 36.7344 113.871 35.6094Z" fill="#FF0021"/>
</svg>
