<svg width="161" height="57" viewBox="0 0 161 57" fill="none" xmlns="http://www.w3.org/2000/svg">
<path d="M45.8477 35.6094C45.8477 37.7188 45.5664 39.6992 45.0039 41.5508C44.4414 43.4023 43.6562 45.1133 42.6484 46.6836C41.6641 48.2539 40.4688 49.6719 39.0625 50.9375C37.6562 52.1797 36.1094 53.2344 34.4219 54.1016C32.7578 54.9688 30.9648 55.6367 29.043 56.1055C27.1445 56.5742 25.1875 56.8086 23.1719 56.8086C21.1562 56.8086 19.1992 56.5742 17.3008 56.1055C15.4023 55.6367 13.6094 54.9688 11.9219 54.1016C10.2578 53.2344 8.72266 52.1797 7.31641 50.9375C5.91016 49.6719 4.70312 48.2539 3.69531 46.6836C2.71094 45.1133 1.9375 43.4023 1.375 41.5508C0.8125 39.6758 0.53125 37.6953 0.53125 35.6094C0.53125 33.5234 0.8125 31.5547 1.375 29.7031C1.9375 27.8281 2.71094 26.1055 3.69531 24.5352C4.70312 22.9648 5.91016 21.5586 7.31641 20.3164C8.72266 19.0508 10.2578 17.9844 11.9219 17.1172C13.6094 16.25 15.4023 15.582 17.3008 15.1133C19.1992 14.6445 21.1562 14.4102 23.1719 14.4102C25.1875 14.4102 27.1445 14.6445 29.043 15.1133C30.9648 15.582 32.7578 16.25 34.4219 17.1172C36.1094 17.9844 37.6562 19.0508 39.0625 20.3164C40.4688 21.5586 41.6641 22.9648 42.6484 24.5352C43.6562 26.1055 44.4414 27.8281 45.0039 29.7031C45.5664 31.5547 45.8477 33.5234 45.8477 35.6094ZM33.7539 35.6094C33.7539 34.4844 33.6836 33.3008 33.543 32.0586C33.4258 30.793 33.2148 29.5625 32.9102 28.3672C32.6055 27.1484 32.1836 25.9883 31.6445 24.8867C31.1289 23.7617 30.4844 22.7891 29.7109 21.9688C28.9375 21.125 28.0117 20.457 26.9336 19.9648C25.8555 19.4492 24.6016 19.1914 23.1719 19.1914C21.8125 19.1914 20.6055 19.4492 19.5508 19.9648C18.4961 20.4805 17.5703 21.1719 16.7734 22.0391C16 22.8828 15.3438 23.8672 14.8047 24.9922C14.2891 26.1172 13.8672 27.2891 13.5391 28.5078C13.2109 29.7031 12.9766 30.9219 12.8359 32.1641C12.6953 33.3828 12.625 34.5312 12.625 35.6094C12.625 36.6875 12.6953 37.8477 12.8359 39.0898C12.9766 40.3086 13.2109 41.5273 13.5391 42.7461C13.8672 43.9648 14.2891 45.1367 14.8047 46.2617C15.3438 47.3633 16 48.3477 16.7734 49.2148C17.5703 50.0586 18.4961 50.7383 19.5508 51.2539C20.6055 51.7695 21.8125 52.0273 23.1719 52.0273C24.5781 52.0273 25.8203 51.7812 26.8984 51.2891C27.9766 50.7734 28.9023 50.0938 29.6758 49.25C30.4727 48.4062 31.1289 47.4336 31.6445 46.332C32.1602 45.2305 32.5703 44.0703 32.875 42.8516C33.2031 41.6328 33.4258 40.4023 33.543 39.1602C33.6836 37.918 33.7539 36.7344 33.7539 35.6094Z" fill="white"/>
<path d="M47 15.9615L61.5 10.0385L73.5 4.5L79.5 0.961538V7.46154L73.5 11L61.5 16.5385L47 22.4615V15.9615Z" fill="white"/>
<path d="M73.5 11L61.5 16.5385V56H73.5V11Z" fill="white"/>
<path d="M61.5 10.0385L73.5 4.5V0.5H61.5V10.0385Z" fill="white"/>
<path d="M128 15.4615L142.5 9.53846L154.5 4L160.5 0.461538V6.96154L154.5 10.5L142.5 16.0385L128 21.9615V15.4615Z" fill="white"/>
<path d="M154.5 10.5L142.5 16.0385V55.5H154.5V10.5Z" fill="white"/>
<path d="M142.5 9.53846L154.5 4V0H142.5V9.53846Z" fill="white"/>
<path d="M126.496 35.6094C126.496 37.7188 126.215 39.6992 125.652 41.5508C125.09 43.4023 124.305 45.1133 123.297 46.6836C122.312 48.2539 121.117 49.6719 119.711 50.9375C118.305 52.1797 116.758 53.2344 115.07 54.1016C113.406 54.9688 111.613 55.6367 109.691 56.1055C107.793 56.5742 105.836 56.8086 103.82 56.8086C101.805 56.8086 99.8477 56.5742 97.9492 56.1055C96.0508 55.6367 94.2578 54.9688 92.5703 54.1016C90.9062 53.2344 89.3711 52.1797 87.9648 50.9375C86.5586 49.6719 85.3516 48.2539 84.3438 46.6836C83.3594 45.1133 82.5859 43.4023 82.0234 41.5508C81.4609 39.6758 81.1797 37.6953 81.1797 35.6094C81.1797 33.5234 81.4609 31.5547 82.0234 29.7031C82.5859 27.8281 83.3594 26.1055 84.3438 24.5352C85.3516 22.9648 86.5586 21.5586 87.9648 20.3164C89.3711 19.0508 90.9062 17.9844 92.5703 17.1172C94.2578 16.25 96.0508 15.582 97.9492 15.1133C99.8477 14.6445 101.805 14.4102 103.82 14.4102C105.836 14.4102 107.793 14.6445 109.691 15.1133C111.613 15.582 113.406 16.25 115.07 17.1172C116.758 17.9844 118.305 19.0508 119.711 20.3164C121.117 21.5586 122.312 22.9648 123.297 24.5352C124.305 26.1055 125.09 27.8281 125.652 29.7031C126.215 31.5547 126.496 33.5234 126.496 35.6094ZM114.402 35.6094C114.402 34.4844 114.332 33.3008 114.191 32.0586C114.074 30.793 113.863 29.5625 113.559 28.3672C113.254 27.1484 112.832 25.9883 112.293 24.8867C111.777 23.7617 111.133 22.7891 110.359 21.9688C109.586 21.125 108.66 20.457 107.582 19.9648C106.504 19.4492 105.25 19.1914 103.82 19.1914C102.461 19.1914 101.254 19.4492 100.199 19.9648C99.1445 20.4805 98.2188 21.1719 97.4219 22.0391C96.6484 22.8828 95.9922 23.8672 95.4531 24.9922C94.9375 26.1172 94.5156 27.2891 94.1875 28.5078C93.8594 29.7031 93.625 30.9219 93.4844 32.1641C93.3438 33.3828 93.2734 34.5312 93.2734 35.6094C93.2734 36.6875 93.3438 37.8477 93.4844 39.0898C93.625 40.3086 93.8594 41.5273 94.1875 42.7461C94.5156 43.9648 94.9375 45.1367 95.4531 46.2617C95.9922 47.3633 96.6484 48.3477 97.4219 49.2148C98.2188 50.0586 99.1445 50.7383 100.199 51.2539C101.254 51.7695 102.461 52.0273 103.82 52.0273C105.227 52.0273 106.469 51.7812 107.547 51.2891C108.625 50.7734 109.551 50.0938 110.324 49.25C111.121 48.4062 111.777 47.4336 112.293 46.332C112.809 45.2305 113.219 44.0703 113.523 42.8516C113.852 41.6328 114.074 40.4023 114.191 39.1602C114.332 37.918 114.402 36.7344 114.402 35.6094Z" fill="white"/>
</svg>
