<svg width="101" height="148" viewBox="0 0 101 148" fill="none" xmlns="http://www.w3.org/2000/svg">
<path d="M62 19.4615L76.5 13.5385L88.5 8L94.5 4.46154V10.9615L88.5 14.5L76.5 20.0385L62 25.9615V19.4615Z" fill="white"/>
<path d="M88.5 14.5L76.5 20.0385V59.5H88.5V14.5Z" fill="white"/>
<path d="M76.5 13.5385L88.5 8V4H76.5V13.5385Z" fill="white"/>
<path d="M5 84.4615L19.5 78.5385L31.5 73L37.5 69.4615V75.9615L31.5 79.5L19.5 85.0385L5 90.9615V84.4615Z" fill="white"/>
<path d="M31.5 79.5L19.5 85.0385V124.5H31.5V79.5Z" fill="white"/>
<path d="M19.5 78.5385L31.5 73V69H19.5V78.5385Z" fill="white"/>
<path d="M58.5703 33.6172C58.5703 37.6953 57.8672 41.375 56.4609 44.6562C55.0547 47.9141 53.1094 50.6797 50.625 52.9531C48.1406 55.2266 45.1992 56.9727 41.8008 58.1914C38.4023 59.4102 34.7227 60.0195 30.7617 60.0195C26.8008 60.0195 23.1211 59.4102 19.7227 58.1914C16.3242 56.9727 13.3828 55.2266 10.8984 52.9531C8.41406 50.6797 6.46875 47.9141 5.0625 44.6562C3.65625 41.375 2.95312 37.6953 2.95312 33.6172C2.95312 29.4688 3.64453 25.7656 5.02734 22.5078C6.43359 19.2266 8.36719 16.4609 10.8281 14.2109C13.3125 11.9375 16.2539 10.2031 19.6523 9.00781C23.0508 7.78906 26.7539 7.17969 30.7617 7.17969C34.7695 7.17969 38.4727 7.78906 41.8711 9.00781C45.2695 10.2031 48.1992 11.9375 50.6602 14.2109C53.1445 16.4609 55.0781 19.2266 56.4609 22.5078C57.8672 25.7656 58.5703 29.4688 58.5703 33.6172ZM44.3672 33.6172C44.3672 32.0703 44.2969 30.4883 44.1562 28.8711C44.0156 27.2539 43.7578 25.6836 43.3828 24.1602C43.0078 22.6367 42.4922 21.207 41.8359 19.8711C41.2031 18.5352 40.3828 17.375 39.375 16.3906C38.3672 15.3828 37.1484 14.5977 35.7188 14.0352C34.3125 13.4492 32.6602 13.1562 30.7617 13.1562C28.8398 13.1562 27.1641 13.4492 25.7344 14.0352C24.3047 14.5977 23.0859 15.3711 22.0781 16.3555C21.0703 17.3398 20.25 18.5 19.6172 19.8359C18.9844 21.1719 18.4805 22.6016 18.1055 24.125C17.7539 25.625 17.5078 27.1953 17.3672 28.8359C17.2266 30.4531 17.1562 32.0469 17.1562 33.6172C17.1562 35.1641 17.2266 36.7461 17.3672 38.3633C17.5078 39.9805 17.7656 41.5508 18.1406 43.0742C18.5156 44.5742 19.0195 45.9922 19.6523 47.3281C20.3086 48.6641 21.1406 49.8359 22.1484 50.8438C23.1562 51.8281 24.3633 52.6133 25.7695 53.1992C27.1992 53.7852 28.8633 54.0781 30.7617 54.0781C32.6133 54.0781 34.2305 53.7852 35.6133 53.1992C36.9961 52.5898 38.1914 51.7812 39.1992 50.7734C40.207 49.7422 41.0391 48.5586 41.6953 47.2227C42.375 45.8633 42.9023 44.4336 43.2773 42.9336C43.6758 41.4102 43.957 39.8516 44.1211 38.2578C44.2852 36.6641 44.3672 35.1172 44.3672 33.6172Z" fill="white"/>
<path d="M97.5703 99.6172C97.5703 103.695 96.8672 107.375 95.4609 110.656C94.0547 113.914 92.1094 116.68 89.625 118.953C87.1406 121.227 84.1992 122.973 80.8008 124.191C77.4023 125.41 73.7227 126.02 69.7617 126.02C65.8008 126.02 62.1211 125.41 58.7227 124.191C55.3242 122.973 52.3828 121.227 49.8984 118.953C47.4141 116.68 45.4688 113.914 44.0625 110.656C42.6562 107.375 41.9531 103.695 41.9531 99.6172C41.9531 95.4688 42.6445 91.7656 44.0273 88.5078C45.4336 85.2266 47.3672 82.4609 49.8281 80.2109C52.3125 77.9375 55.2539 76.2031 58.6523 75.0078C62.0508 73.7891 65.7539 73.1797 69.7617 73.1797C73.7695 73.1797 77.4727 73.7891 80.8711 75.0078C84.2695 76.2031 87.1992 77.9375 89.6602 80.2109C92.1445 82.4609 94.0781 85.2266 95.4609 88.5078C96.8672 91.7656 97.5703 95.4688 97.5703 99.6172ZM83.3672 99.6172C83.3672 98.0703 83.2969 96.4883 83.1562 94.8711C83.0156 93.2539 82.7578 91.6836 82.3828 90.1602C82.0078 88.6367 81.4922 87.207 80.8359 85.8711C80.2031 84.5352 79.3828 83.375 78.375 82.3906C77.3672 81.3828 76.1484 80.5977 74.7188 80.0352C73.3125 79.4492 71.6602 79.1562 69.7617 79.1562C67.8398 79.1562 66.1641 79.4492 64.7344 80.0352C63.3047 80.5977 62.0859 81.3711 61.0781 82.3555C60.0703 83.3398 59.25 84.5 58.6172 85.8359C57.9844 87.1719 57.4805 88.6016 57.1055 90.125C56.7539 91.625 56.5078 93.1953 56.3672 94.8359C56.2266 96.4531 56.1562 98.0469 56.1562 99.6172C56.1562 101.164 56.2266 102.746 56.3672 104.363C56.5078 105.98 56.7656 107.551 57.1406 109.074C57.5156 110.574 58.0195 111.992 58.6523 113.328C59.3086 114.664 60.1406 115.836 61.1484 116.844C62.1562 117.828 63.3633 118.613 64.7695 119.199C66.1992 119.785 67.8633 120.078 69.7617 120.078C71.6133 120.078 73.2305 119.785 74.6133 119.199C75.9961 118.59 77.1914 117.781 78.1992 116.773C79.207 115.742 80.0391 114.559 80.6953 113.223C81.375 111.863 81.9023 110.434 82.2773 108.934C82.6758 107.41 82.957 105.852 83.1211 104.258C83.2852 102.664 83.3672 101.117 83.3672 99.6172Z" fill="white"/>
</svg>
